<?xml version="1.0" encoding="utf-8"?>
<!-- Generator: Adobe Illustrator 25.3.0, SVG Export Plug-In . SVG Version: 6.00 Build 0)  -->
<svg version="1.1" id="Layer_1" xmlns="http://www.w3.org/2000/svg" xmlns:xlink="http://www.w3.org/1999/xlink" x="0px" y="0px"
	 viewBox="0 0 1500 360" style="enable-background:new 0 0 1500 360;" xml:space="preserve">
<style type="text/css">
	.st0{clip-path:url(#SVGID_2_);}
	.st1{clip-path:url(#SVGID_4_);fill:#084B68;}
	.st2{clip-path:url(#SVGID_4_);fill:#E3F3F1;}
	.st3{fill:none;}
</style>
<g>
	<path d="M461.16,138.4h-96.21v42.19h80.31v40.84h-80.31v59.77h-44.2V97.29h140.4V138.4z"/>
	<path d="M636.05,97.29v41.11h-96.21v31.64h80.31v38.4h-80.31v31.64h96.21v41.11h-140.4V97.29H636.05z"/>
	<path d="M842.48,189.24c0,52.46-42.58,95.19-94.59,95.19c-52.55,0-94.59-42.73-94.59-95.19c0-52.19,42.04-95.19,94.59-95.19
		C799.9,94.05,842.48,137.05,842.48,189.24z M693.72,189.24c0,30.02,24.25,54.09,54.17,54.09c29.37,0,53.63-24.07,53.63-54.09
		c0-29.75-24.25-53.82-53.63-53.82C717.97,135.42,693.72,159.49,693.72,189.24z"/>
	<path d="M1050.52,281.19h-44.46l-92.7-112.5v112.5h-44.46V97.29h44.46l92.7,112.23V97.29h44.46V281.19z"/>
	<path d="M1133.25,281.19h-44.2V97.29h44.2V281.19z"/>
	<path d="M1166.66,251.98l61.44-60.85l-64.68-65.44l31.53-31.64l64.68,65.44l66.56-65.44l31.53,31.37l-67.1,66.26l61.17,61.12
		l-32.07,31.91l-60.36-61.66l-61.17,61.12L1166.66,251.98z"/>
</g>
<g>
	<path d="M1372.7,258.06c4.07,0,7.79,3.15,7.79,6.81c0,4.06-3.25,6.81-7.79,6.81c-4.19,0-7.79-3.15-7.79-6.81
		C1364.91,260.71,1367.82,258.06,1372.7,258.06z"/>
	<path d="M1397.34,202.17c0-3.86,2.79-6.4,7.32-6.4c4.07,0,7.32,2.95,7.32,6.4c0,3.86-2.79,6.4-7.32,6.4
		C1400.6,208.57,1397.34,205.62,1397.34,202.17z M1409.9,270.46h-10.46v-52.84h10.46V270.46z"/>
	<path d="M1438.62,226.46c4.3-5.69,11.04-10.06,20.34-10.06c13.6,0,20.34,7.83,20.34,19.61v34.45h-10.46v-33.43
		c0-7.62-4.3-12.6-11.63-12.6c-7.21,0-13.83,5.08-18.25,11.08v34.96h-10.46v-52.84h10.11V226.46z"/>
</g>
<g>
	<g>
		<defs>
			<rect id="SVGID_1_" x="-22.34" y="17.05" width="345.12" height="329.06"/>
		</defs>
		<clipPath id="SVGID_2_">
			<use xlink:href="#SVGID_1_"  style="overflow:visible;"/>
		</clipPath>
		<g class="st0">
			<defs>
				<rect id="SVGID_3_" x="-22.34" y="17.05" width="345.12" height="329.06"/>
			</defs>
			<clipPath id="SVGID_4_">
				<use xlink:href="#SVGID_3_"  style="overflow:visible;"/>
			</clipPath>
			<path class="st1" d="M294.24,182.12c0,75.84-64.48,137.32-144.02,137.32S6.19,257.96,6.19,182.12
				c0-75.84,64.48-137.32,144.02-137.32S294.24,106.28,294.24,182.12"/>
			<path class="st2" d="M147.53,147.32c1.49-3.55,2.98-7.09,4.43-10.42c13.19-30.62,45.6-43.43,78.49-38.71
				c12.25,1.76,21.21,5.26,19.67,14.99c-0.75,4.76-7.57,9.75-19.73,13.31c-2.78-8.8-8.03-13.76-15.29-14.8
				c-5.67-0.81-13.87,2.65-18.03,6.92c-5.27,5.44-11.16,16.31-17.56,33.31l-6.75,16.28c-9.43,22.97-17.25,47.51-31.57,73.54
				c-11.06,20.09-31,34.69-54.49,39.5c-0.94,0.09-1.66,0.21-2.34,0.11c-3.18-0.46-3.84-2.1-3.57-3.83c0.47-1.48,1.44-1.78,3.04-3.1
				c12.74-7.24,22.66-18.64,27.57-32.09c3.25-8.82,25.93-70.14,29.3-78.29L147.53,147.32z"/>
			<path class="st2" d="M241.94,218.33c0,17.79-15.11,33.28-34.91,33.28c-18.41,0-34.02-13.56-34.15-31.71
				c0-17.43,14.34-33.65,34.53-33.65c10.66,0,21.23,3.23,28.09,11.1c-2.92-1.69-8.95-2.42-12.38-2.42c-5.2,0-10.16,1.94-13.2,5.45
				c-0.92,0.69-0.92,0.69-2.89,0.76c-9.77,0.36-17.39,7.14-17.39,18.15c0,12.22,9.39,17.43,18.28,17.43
				c9.01,0,17.26-5.69,17.26-17.31c0-6.9-5.59-10.41-10.54-10.41c-1.78,0-3.55,0.48-4.95,1.33c0.89-7.26,8.12-10.65,15.61-10.65
				C237.88,199.69,241.94,209.01,241.94,218.33"/>
			<path class="st2" d="M72.03,135.17c7.49,0,14.72,3.39,15.61,10.65c-1.4-0.85-3.17-1.33-4.95-1.33c-4.95,0-10.54,3.51-10.54,10.41
				c0,11.62,8.25,17.31,17.26,17.31c8.89,0,18.28-5.2,18.28-17.43c0-11.01-7.62-17.8-17.39-18.15c-1.97-0.07-1.97-0.07-2.89-0.76
				c-3.05-3.51-8-5.45-13.2-5.45c-3.43,0-9.46,0.73-12.38,2.42c6.85-7.87,17.42-11.1,28.09-11.1c20.18,0,34.53,16.22,34.53,33.65
				c-0.13,18.15-15.74,31.71-34.15,31.71c-19.8,0-34.91-15.49-34.91-33.28C55.4,144.49,59.46,135.17,72.03,135.17"/>
		</g>
	</g>
</g>
<g>
</g>
<g>
</g>
<g>
</g>
<g>
</g>
<g>
</g>
<g>
</g>
<g>
	<rect x="1.98" y="0.79" class="st3" width="1498.02" height="359.21"/>
</g>
<g>
</g>
<g>
</g>
<g>
</g>
<g>
</g>
<g>
</g>
<g>
</g>
</svg>
